:SAMPLES-PER-SECOND 30
:FULLY-SPECIFIED
:DEGREES
929
root  -46.4827 38.0509 15.1946 178.689 -61.7051 176.857
RightUpLeg  -3.65041 -11.8436 -12.9786
RightLeg  37.7855 -6.001 -5.2405
RightFoot  -18.8639 0.657091 12.0637
RightToes  -6.98493e-010 0 -3.6325e-017
Spine  24.5894 0.274447 9.09792
Spine1  10.3169 5.96735 -13.7503
HEad  -12.5725 -1.83691 2.13796
LeftShoulder1  1.33851 -1.98009 -17.8031
LeftArm  -31.131 -41.6859 -32.3431
LeftForeArm  0.298164 -62.9499 -22.9175
LeftHand  -0.17981 1.48163 5.21968
RightShoulder  0.750627 2.17744 5.41815
RightArm  -38.5711 56.7133 21.9521
RightForeArm  -26.5143 36.4757 9.67397
RightHand  0.127876 2.92497 1.56901
LeftUpLeg  -24.2208 10.9094 -0.264008
LeftLeg  16.6626 -5.25968 -2.16463
LeftFoot  12.5277 -0.596595 2.4586
LeftToes  7.91257e-010 -1.64976e-010 -3.02228e-011
930
root  -45.7626 37.9365 15.2232 177.923 -60.5322 176.56
RightUpLeg  -2.70559 -12.0678 -13.0979
RightLeg  35.7812 -4.31897 -3.58984
RightFoot  -21.2257 0.888225 11.966
RightToes  -6.98493e-010 0 -3.6325e-017
Spine  24.2259 0.340517 8.27895
Spine1  9.68268 5.30479 -12.1564
HEad  -11.51 -1.70605 1.54321
LeftShoulder1  1.22244 -1.32663 -18.7374
LeftArm  -30.2021 -39.045 -31.455
LeftForeArm  0.0604718 -63.5687 -23.6662
LeftHand  -0.17761 0.882625 4.50467
RightShoulder  0.809588 2.30009 6.28146
RightArm  -33.8816 55.4809 26.2333
RightForeArm  -25.0026 40.1724 10.8289
RightHand  0.112352 2.89774 1.35301
LeftUpLeg  -23.222 10.3138 0.820315
LeftLeg  15.0909 -3.57883 -1.82299
LeftFoot  14.1145 -0.500275 1.83083
LeftToes  7.91257e-010 -1.64976e-010 -3.02228e-011
931
root  -45.0161 37.9237 15.3121 176.279 -59.1814 177.109
RightUpLeg  -2.43619 -13.0892 -12.7248
RightLeg  34.9597 -2.65025 -2.23978
RightFoot  -21.8306 0.688877 9.07835
RightToes  -6.98493e-010 0 -3.6325e-017
Spine  23.6942 0.0805374 9.43643
Spine1  9.94812 5.24626 -11.9757
HEad  -11.3529 -2.21824 1.40336
LeftShoulder1  1.18527 -1.1168 -19.1232
LeftArm  -29.2653 -36.5086 -31.2323
LeftForeArm  0.382417 -64.603 -24.9048
LeftHand  -0.181492 1.1276 4.8489
RightShoulder  0.789723 1.81549 7.27628
RightArm  -30.3861 54.0465 29.7738
RightForeArm  -23.4793 43.5154 12.0178
RightHand  0.118193 2.99425 1.41231
LeftUpLeg  -21.3476 9.04537 2.54696
LeftLeg  12.1723 -1.20384 -1.29019
LeftFoot  16.1589 -0.238015 0.582195
LeftToes  7.91257e-010 -1.64976e-010 -3.02228e-011
932
root  -44.3002 37.9729 15.4388 175.13 -57.5663 177.813
RightUpLeg  -3.35149 -14.036 -12.1053
RightLeg  34.9202 -0.928971 -0.951773
RightFoot  -21.1639 0.522801 7.74025
RightToes  -6.98493e-010 0 -3.6325e-017
Spine  22.3454 -0.0603184 10.907
Spine1  10.8671 5.35251 -11.8353
HEad  -11.767 -3.24837 0.823878
LeftShoulder1  1.10143 -0.677642 -19.8561
LeftArm  -28.1196 -34.8762 -30.6539
LeftForeArm  0.0988656 -65.2367 -25.7885
LeftHand  -0.173133 0.967358 4.46986
RightShoulder  0.777978 1.40551 8.44846
RightArm  -27.3993 52.2988 31.8224
RightForeArm  -22.5832 47.4062 13.6333
RightHand  0.0471629 2.79375 0.455952
LeftUpLeg  -19.7095 7.1492 4.19511
LeftLeg  8.74351 2.08785 -0.215029
LeftFoot  17.1767 0.327139 -1.71975
LeftToes  7.91257e-010 -1.64976e-010 -3.02228e-011
933
root  -43.618 38.0626 15.6189 174.068 -56.4262 178.494
RightUpLeg  -4.01847 -15.1328 -11.535
RightLeg  34.5522 0.754707 0.306845
RightFoot  -20.1273 0.372452 6.62581
RightToes  -6.98493e-010 0 -3.6325e-017
Spine  21.1895 -0.288176 11.8063
Spine1  11.5927 4.96451 -10.8956
HEad  -12.1461 -4.05375 0.16272
LeftShoulder1  1.04976 -0.368643 -20.6684
LeftArm  -26.774 -32.719 -30.2311
LeftForeArm  0.797716 -66.1108 -26.9763
LeftHand  -0.149068 1.41661 4.18847
RightShoulder  0.714541 0.652427 9.91132
RightArm  -24.2273 50.9796 33.2197
RightForeArm  -21.2226 50.7796 15.2473
RightHand  0.0343855 2.47482 0.300573
LeftUpLeg  -18.5779 6.49915 5.14224
LeftLeg  6.43511 3.04517 0.528859
LeftFoot  14.9949 0.71193 -3.44838
LeftToes  7.91257e-010 -1.64976e-010 -3.02228e-011
934
root  -42.9959 38.2373 15.7884 174.049 -55.4458 178.271
RightUpLeg  -4.67028 -14.5089 -10.808
RightLeg  33.4599 0.658095 0.219981
RightFoot  -18.8277 0.267207 6.02555
RightToes  -6.98493e-010 0 -3.6325e-017
Spine  20.1197 -0.372913 11.1349
Spine1  11.5653 4.0416 -8.88405
HEad  -11.6609 -4.48975 -0.296846
LeftShoulder1  1.01469 -0.164929 -21.2561
LeftArm  -25.9068 -28.9347 -30.6572
LeftForeArm  2.91296 -67.4577 -28.8677
LeftHand  -0.123111 1.53859 3.52912
RightShoulder  0.718562 0.476062 10.9144
RightArm  -20.7464 48.5655 35.6485
RightForeArm  -19.714 53.9519 17.0331
RightHand  -0.0283867 1.67625 -0.619837
LeftUpLeg  -17.5199 6.32729 5.39052
LeftLeg  4.29059 1.01753 0.423484
LeftFoot  10.9912 0.93227 -5.07608
LeftToes  7.91257e-010 -1.64976e-010 -3.02228e-011
935
root  -42.5005 38.4476 16.0211 174.132 -54.8715 177.343
RightUpLeg  -4.45821 -13.7071 -10.9155
RightLeg  32.1055 0.365961 0.00298765
RightFoot  -17.2317 0.161483 5.41508
RightToes  -6.98493e-010 0 -3.6325e-017
Spine  19.7858 -0.966122 10.5221
Spine1  11.2905 2.94003 -7.89599
HEad  -11.3326 -4.99604 0.206667
LeftShoulder1  0.957276 0.0935221 -21.6877
LeftArm  -24.2863 -25.9175 -30.6265
LeftForeArm  4.13466 -68.4316 -30.4698
LeftHand  -0.132667 1.60686 3.94772
RightShoulder  0.69207 0.0508338 12.4745
RightArm  -17.7425 45.5929 37.6367
RightForeArm  -17.115 57.5391 19.4068
RightHand  -0.0382122 1.05645 -0.782689
LeftUpLeg  -16.5897 5.78886 4.74572
LeftLeg  4.84818 -2.33594 0.0638134
LeftFoot  7.87768 1.06389 -6.54191
LeftToes  7.91257e-010 -1.64976e-010 -3.02228e-011
936
root  -42.0653 38.6935 16.2961 174.46 -54.3751 176.534
RightUpLeg  -4.30267 -13.1767 -11.0625
RightLeg  30.223 0.279523 -0.066063
RightFoot  -15.45 0.078476 5.10097
RightToes  -6.98493e-010 0 -3.6325e-017
Spine  18.779 -1.38351 10.3871
Spine1  11.9173 2.2175 -7.18912
HEad  -11.3129 -6.35864 1.20128
LeftShoulder1  0.993768 0.0301855 -22.2632
LeftArm  -22.7851 -23.767 -30.7012
LeftForeArm  5.98993 -69.0777 -31.4987
LeftHand  -0.0839868 0.713885 1.99285
RightShoulder  0.543079 -0.841432 13.7137
RightArm  -16.2924 41.8623 38.9552
RightForeArm  -12.9396 61.1661 22.3054
RightHand  -0.010516 0.939951 -0.277478
LeftUpLeg  -16.9264 4.44388 3.65347
LeftLeg  9.55299 -2.16408 0.107212
LeftFoot  6.01251 0.926078 -6.30062
LeftToes  7.91257e-010 -1.64976e-010 -3.02228e-011
937
root  -41.7434 38.9603 16.63 174.658 -53.0263 176.128
RightUpLeg  -4.20289 -12.4747 -11.0765
RightLeg  27.7852 0.734024 0.183387
RightFoot  -13.3171 -0.00790079 4.76746
RightToes  -6.98493e-010 0 -3.6325e-017
Spine  17.8591 -1.65362 10.5323
Spine1  12.2347 1.78387 -6.76178
HEad  -11.1278 -6.99235 1.69806
LeftShoulder1  1.00582 0.000345921 -22.3811
LeftArm  -21.2909 -21.1288 -31.5574
LeftForeArm  6.95247 -69.7666 -32.8375
LeftHand  -0.0982249 1.05105 2.50871
RightShoulder  0.398994 -1.7515 16.1693
RightArm  -14.3555 38.434 39.0282
RightForeArm  -9.77147 64.5353 25.9432
RightHand  -0.0768797 0.988051 -1.51095
LeftUpLeg  -17.0003 3.00735 2.93957
LeftLeg  15.2946 -0.725452 0.16702
LeftFoot  3.3031 0.643913 -5.12995
LeftToes  7.91257e-010 -1.64976e-010 -3.02228e-011
938
root  -41.471 39.2022 16.9851 174.499 -50.5925 176.124
RightUpLeg  -4.16643 -11.0842 -10.7667
RightLeg  25.1059 1.58083 0.582468
RightFoot  -11.1838 -0.0827309 4.60353
RightToes  -6.98493e-010 0 -3.6325e-017
Spine  17.5224 -1.65142 10.7803
Spine1  12.0103 1.632 -6.09807
HEad  -10.7969 -7.53766 1.00674
LeftShoulder1  0.958788 0.289617 -23.5462
LeftArm  -19.4725 -18.7938 -31.5888
LeftForeArm  7.90454 -70.2884 -33.9114
LeftHand  -0.101611 1.0381 2.59437
RightShoulder  0.367833 -1.89897 16.5009
RightArm  -13.3919 33.451 40.5116
RightForeArm  -3.97324 68.0626 30.8881
RightHand  -0.113547 0.365538 -2.35679
LeftUpLeg  -16.4697 2.545 2.38026
LeftLeg  21.075 -0.201701 0.233348
LeftFoot  -0.260442 0.344792 -3.55861
LeftToes  7.91257e-010 -1.64976e-010 -3.02228e-011
939
root  -41.2512 39.4095 17.3501 174.303 -47.4186 176.27
RightUpLeg  -4.22545 -9.08524 -10.3233
RightLeg  22.2508 2.77538 1.00127
RightFoot  -9.23988 -0.153153 4.90308
RightToes  -6.98493e-010 0 -3.6325e-017
Spine  17.0813 -1.60465 11.3437
Spine1  12.1499 1.83887 -6.26578
HEad  -10.5399 -7.40723 0.625858
LeftShoulder1  0.922632 0.474969 -24.2067
LeftArm  -18.0849 -16.4437 -31.4311
LeftForeArm  8.9348 -70.8493 -35.1451
LeftHand  -0.086518 0.925132 2.16291
RightShoulder  0.291579 -2.27265 17.5444
RightArm  -12.7614 29.1034 41.7991
RightForeArm  3.54833 71.1757 36.9681
RightHand  -0.135452 -0.347075 -3.06247
LeftUpLeg  -15.2204 1.71088 1.87588
LeftLeg  25.763 -0.398847 0.118385
LeftFoot  -3.98533 0.242238 -3.43636
LeftToes  7.91257e-010 -1.64976e-010 -3.02228e-011
940
root  -41.1041 39.5425 17.7393 174.619 -44.2463 176.046
RightUpLeg  -4.67125 -8.2211 -10.276
RightLeg  19.9032 4.85056 1.4696
RightFoot  -7.98761 -0.222295 5.71764
RightToes  -6.98493e-010 0 -3.6325e-017
Spine  15.974 -1.65885 11.9413
Spine1  13.0674 2.11073 -7.08291
HEad  -10.8741 -7.57671 0.638073
LeftShoulder1  0.907807 0.579528 -24.8202
LeftArm  -17.3955 -14.4499 -31.3151
LeftForeArm  10.3196 -71.2781 -36.0669
LeftHand  -0.0614141 0.50843 1.39774
RightShoulder  0.200226 -2.69861 18.9864
RightArm  -12.4596 25.2424 42.5229
RightForeArm  13.0887 73.7297 44.0606
RightHand  -0.0872473 -0.648583 -2.07393
LeftUpLeg  -13.5099 0.35549 0.780889
LeftLeg  29.2087 -2.03903 -0.905269
LeftFoot  -7.57759 0.186603 -4.34361
LeftToes  7.91257e-010 -1.64976e-010 -3.02228e-011
941
root  -40.9754 39.573 18.125 174.429 -40.8009 176.757
RightUpLeg  -5.4566 -8.28151 -9.48306
RightLeg  18.0462 7.92103 1.98446
RightFoot  -7.75483 -0.283355 7.41417
RightToes  -6.98493e-010 0 -3.6325e-017
Spine  15.5335 -1.74301 12.4577
Spine1  12.9512 2.07341 -7.09125
HEad  -11.026 -7.635 0.21685
LeftShoulder1  0.863385 0.780047 -25.4918
LeftArm  -16.7212 -11.9343 -30.7276
LeftForeArm  12.0542 -72.059 -38.0531
LeftHand  -0.111901 0.607581 2.67027
RightShoulder  0.168824 -2.82788 19.4129
RightArm  -12.0799 20.8941 44.165
RightForeArm  23.8674 75.8897 53.3488
RightHand  -0.107975 -0.415817 -2.49458
LeftUpLeg  -11.7412 -0.652862 0.198408
LeftLeg  31.9153 -4.92873 -2.95806
LeftFoot  -10.4398 0.110141 -6.06808
LeftToes  7.91257e-010 -1.64976e-010 -3.02228e-011
